<svg xmlns="http://www.w3.org/2000/svg" width="1920" height="329" viewBox="0 0 1920 329">
  <g id="Contact" transform="translate(0 -5844.412)">
    <rect id="Rectangle_23" data-name="Rectangle 23" width="1920" height="329" transform="translate(0 5844.412)" fill="#e94560"/>
    <g id="Group_18" data-name="Group 18" transform="translate(237 5939.866)">
      <g id="Group_17" data-name="Group 17">
        <text id="_91_9881308669" data-name="+91 9881308669" transform="translate(0 145.545)" fill="#fff" font-size="35" font-family="Submariner-Bold, Submariner" font-weight="700"><tspan x="0" y="0">+91 9881308669</tspan></text>
        <g id="Group_38" data-name="Group 38" transform="translate(94)">
          <path id="Icon_awesome-whatsapp" data-name="Icon awesome-whatsapp" d="M39.2,8.95A22.855,22.855,0,0,0,3.242,36.522L0,48.358l12.114-3.18a22.779,22.779,0,0,0,10.92,2.779h.01A23.068,23.068,0,0,0,46.108,25.108,22.938,22.938,0,0,0,39.2,8.95ZM23.044,44.107a18.957,18.957,0,0,1-9.674-2.645l-.69-.412L5.5,42.934,7.41,35.925l-.453-.72a19.027,19.027,0,1,1,35.291-10.1,19.2,19.2,0,0,1-19.2,19ZM33.459,29.884c-.566-.288-3.376-1.667-3.9-1.853s-.906-.288-1.286.288-1.472,1.853-1.811,2.244-.669.432-1.235.144c-3.355-1.678-5.558-2.995-7.77-6.793-.587-1.009.587-.937,1.678-3.118a1.058,1.058,0,0,0-.051-1c-.144-.288-1.286-3.1-1.76-4.24-.463-1.112-.937-.957-1.286-.978-.329-.021-.71-.021-1.091-.021a2.115,2.115,0,0,0-1.523.71,6.415,6.415,0,0,0-2,4.765c0,2.81,2.048,5.527,2.326,5.908s4.024,6.144,9.757,8.625c3.623,1.564,5.043,1.7,6.854,1.431,1.1-.165,3.376-1.379,3.849-2.717a4.775,4.775,0,0,0,.329-2.717C34.406,30.306,34.025,30.162,33.459,29.884Z" transform="translate(21.946 18.558)" fill="#fff"/>
          <g id="Rectangle_20" data-name="Rectangle 20" transform="translate(0 -0.455)" fill="none" stroke="#fff" stroke-width="3">
            <rect width="89" height="89" rx="21" stroke="none"/>
            <rect x="1.5" y="1.5" width="86" height="86" rx="19.5" fill="none"/>
          </g>
        </g>
      </g>
      <g id="Group_15" data-name="Group 15" transform="translate(508 4)">
        <text id="vedangpaithankar_gmail.com" data-name="vedangpaithankar@gmail.com" transform="translate(0 145.545)" fill="#fff" font-size="35" font-family="Submariner-Bold, Submariner" font-weight="700"><tspan x="0" y="0">vedangpaithankar@gmail.com</tspan></text>
        <g id="Group_37" data-name="Group 37" transform="translate(186)">
          <g id="Icon_feather-mail" data-name="Icon feather-mail" transform="translate(25.085 27.69)">
            <path id="Path_50" data-name="Path 50" d="M7.153,6H40.379a4.165,4.165,0,0,1,4.153,4.153V35.072a4.165,4.165,0,0,1-4.153,4.153H7.153A4.165,4.165,0,0,1,3,35.072V10.153A4.165,4.165,0,0,1,7.153,6Z" transform="translate(-3 -6)" fill="none" stroke="#fff" stroke-linecap="round" stroke-linejoin="round" stroke-width="3"/>
            <path id="Path_51" data-name="Path 51" d="M44.532,9,23.766,23.536,3,9" transform="translate(-3 -4.847)" fill="none" stroke="#fff" stroke-linecap="round" stroke-linejoin="round" stroke-width="3"/>
          </g>
          <g id="Rectangle_21" data-name="Rectangle 21" transform="translate(0 -0.455)" fill="none" stroke="#fff" stroke-width="3">
            <rect width="89" height="89" rx="21" stroke="none"/>
            <rect x="1.5" y="1.5" width="86" height="86" rx="19.5" fill="none"/>
          </g>
        </g>
      </g>
      <g id="Group_16" data-name="Group 16" transform="translate(1196 4)">
        <text id="_vedang_1122" data-name="@vedang_1122" transform="translate(0 141.545)" fill="#fff" font-size="35" font-family="Submariner-Bold, Submariner" font-weight="700"><tspan x="0" y="0">@vedang_1122</tspan></text>
        <g id="Group_36" data-name="Group 36" transform="translate(73)">
          <path id="Icon_awesome-instagram" data-name="Icon awesome-instagram" d="M23.059,13.47A11.821,11.821,0,1,0,34.88,25.292,11.8,11.8,0,0,0,23.059,13.47Zm0,19.507a7.686,7.686,0,1,1,7.686-7.686A7.7,7.7,0,0,1,23.059,32.977ZM38.121,12.987a2.757,2.757,0,1,1-2.757-2.757A2.751,2.751,0,0,1,38.121,12.987Zm7.83,2.8c-.175-3.694-1.019-6.965-3.724-9.661S36.259,2.585,32.566,2.4c-3.807-.216-15.217-.216-19.023,0-3.683.175-6.955,1.019-9.661,3.714S.342,12.081.157,15.775c-.216,3.807-.216,15.217,0,19.023.175,3.694,1.019,6.965,3.724,9.661S9.849,48,13.542,48.184c3.807.216,15.217.216,19.023,0,3.694-.175,6.965-1.019,9.661-3.724s3.539-5.967,3.724-9.661c.216-3.807.216-15.206,0-19.013Zm-4.918,23.1a7.781,7.781,0,0,1-4.383,4.383c-3.035,1.2-10.237.926-13.591.926s-10.566.267-13.591-.926a7.781,7.781,0,0,1-4.383-4.383c-1.2-3.035-.926-10.237-.926-13.591S3.891,14.725,5.085,11.7A7.781,7.781,0,0,1,9.468,7.318c3.035-1.2,10.237-.926,13.591-.926s10.566-.268,13.591.926A7.781,7.781,0,0,1,41.033,11.7c1.2,3.035.926,10.237.926,13.591S42.237,35.858,41.033,38.883Z" transform="translate(21.053 19.012)" fill="#fff"/>
          <g id="Rectangle_22" data-name="Rectangle 22" transform="translate(0 -0.455)" fill="none" stroke="#fff" stroke-width="3">
            <rect width="89" height="89" rx="21" stroke="none"/>
            <rect x="1.5" y="1.5" width="86" height="86" rx="19.5" fill="none"/>
          </g>
        </g>
      </g>
    </g>
  </g>
</svg>
